<svg width="138" height="20" viewBox="0 0 138 20" fill="none" xmlns="http://www.w3.org/2000/svg">
<path d="M0 19.0223H4.9862V12.4413H12.4519V8.64665H4.9862V4.79888H13.5417V0.977654H0V19.0223Z" fill="white"/>
<path d="M26.1963 19.0223H31.5094L24.8884 0.977654H18.9486L12.3276 19.0223H17.341L18.4036 15.9441H25.1336L26.1963 19.0223ZM21.2101 7.90363L21.7823 5.80726L22.3544 7.90363L23.8803 12.2821H19.6842L21.2101 7.90363Z" fill="white"/>
<path d="M35.2067 19.0223H40.1657V4.90503H45.724V0.977654H29.6483V4.90503H35.2067V19.0223Z" fill="white"/>
<path d="M51.6068 5.67458C51.6068 4.79888 52.4515 4.24162 53.7049 4.24162C55.3124 4.24162 56.2388 5.01117 56.5385 6.60335H61.8517C61.3068 2.33101 57.8464 0.5 53.9228 0.5C49.1819 0.5 46.5117 2.99441 46.5117 6.17877C46.5117 13.2374 57.2742 10.5042 57.2742 14.0866C57.2742 15.1215 56.4023 15.7584 54.713 15.7584C52.9692 15.7584 51.7703 14.8561 51.4979 13.2109H46.2664C46.8659 17.4567 50.1628 19.5 54.6585 19.5C59.0998 19.5 62.3694 17.2709 62.3694 13.4763C62.3694 6.1257 51.6068 9.15084 51.6068 5.67458Z" fill="white"/>
<path d="M72.8512 19.5C78.682 19.5 82.3059 15.8645 82.3059 10.0265C82.3059 4.16201 78.682 0.5 72.8512 0.5C67.0203 0.5 63.3965 4.16201 63.3965 10.0265C63.3965 15.8645 67.0203 19.5 72.8512 19.5ZM72.8512 15.5461C70.0992 15.5461 68.4917 13.4763 68.4917 10.0265C68.4917 6.55028 70.0992 4.45391 72.8512 4.45391C75.6304 4.45391 77.2107 6.55028 77.2107 10.0265C77.2107 13.4763 75.6304 15.5461 72.8512 15.5461Z" fill="white"/>
<path d="M84.2049 19.0223H89.1911L88.8914 6.47067L90.2537 11.0084L93.1691 19.0223H96.7657L99.6539 11.088L101.071 6.4176L100.771 19.0223H105.757V0.977654H99.4359L95.9211 10.8226L95.0764 13.8743L94.2045 10.8226L90.6897 0.977654H84.2049V19.0223Z" fill="white"/>
<path d="M120.699 19.0223H126.012L119.391 0.977654H113.451L106.83 19.0223H111.843L112.906 15.9441H119.636L120.699 19.0223ZM115.712 7.90363L116.285 5.80726L116.857 7.90363L118.383 12.2821H114.187L115.712 7.90363Z" fill="white"/>
<path d="M131.879 13.249C135.418 13.249 138.001 10.7221 138.001 7.33612C138.001 3.97537 135.418 1.49902 131.879 1.49902C128.314 1.49902 125.757 3.97537 125.757 7.36139C125.757 10.7474 128.314 13.249 131.879 13.249ZM131.879 12.2635C129.012 12.2635 126.919 10.1915 126.919 7.36139C126.919 4.58182 129.012 2.48451 131.879 2.48451C134.72 2.48451 136.838 4.58182 136.838 7.33612C136.838 10.1662 134.72 12.2635 131.879 12.2635ZM129.322 10.6969H130.742V7.96784H131.905C132.654 7.96784 132.964 8.11945 133.145 8.90279L133.532 10.6969H134.979L134.436 8.59956C134.307 8.06892 134.1 7.71515 133.739 7.48773C134.333 7.18451 134.669 6.65386 134.669 5.8958C134.669 4.63236 133.687 3.82375 132.111 3.82375H129.322V10.6969ZM132.034 4.88504C132.835 4.88504 133.325 5.31462 133.325 5.9716C133.325 6.62859 132.835 7.03289 132.008 7.03289H130.742V4.88504H132.034Z" fill="white"/>
</svg>
